<svg xmlns="http://www.w3.org/2000/svg" viewBox="0 0 1852.71 1896"><title>posSvechi</title><g id="Слой_2" data-name="Слой 2"><g id="Layer_1" data-name="Layer 1" style="fill: #e4a228;"><path d="M1852.71,1705.08C1080,1480.15,477.67,805.7,365.45,0H0Q12,100.49,32.71,200A2394.63,2394.63,0,0,0,172.88,646.12a2475.79,2475.79,0,0,0,221.75,409.2,2515.44,2515.44,0,0,0,294.1,361.06,2498.87,2498.87,0,0,0,357.7,301.69A2450.72,2450.72,0,0,0,1346.58,1896h506.13Z"/><path d="M1436,767.25C1193.13,544.29,1033.47,266,991,0H624.8a1346.18,1346.18,0,0,0,33.32,180.56C684.5,284,723.51,387.73,774.05,488.85c49.46,99,110.1,195.68,180.23,287.5a1999.17,1999.17,0,0,0,236.3,258.16,2087.76,2087.76,0,0,0,285.36,219.62,2077.58,2077.58,0,0,0,327.88,170.93q24.32,10,48.9,19.4V1050.56C1703,978.49,1562.49,883.42,1436,767.25Z"/><path d="M1661.45,0H1273.17q2.51,8.07,5.09,16.09C1339.83,207,1433.59,374.36,1557,513.66c85.34,96.36,184.35,178.63,295.75,246V296C1767.06,205.65,1705.48,103.63,1661.45,0Z"/></g></g></svg>