<svg xmlns="http://www.w3.org/2000/svg" viewBox="0 0 787 780.72"><title>polZvezdy</title><g id="Слой_2" data-name="Слой 2"><g id="Слой_1-2" data-name="Слой 1"><path d="M787,464.72c-1.28-1.9-2.68-3.74-3.82-5.72Q721,351.29,658.89,243.56c-1-1.73-2-3.42-3.43-5.75-1.27,2.08-2.37,3.79-3.38,5.55q-70.7,123.25-141.28,246.57c-2.21,3.87-4.57,5.12-9,5.12q-144.5-.2-289-.1h-7.48c1.22,2.33,2,4,3,5.64Q279.83,624.84,351.45,749c2.25,3.89,2.12,6.58-.06,10.28-4.1,7-7.63,14.28-11.39,21.44H203c4-7.08,7.86-14.29,12.17-21.19,2.15-3.44,2-6,0-9.46Q108.92,565.86,2.9,381.54A36.26,36.26,0,0,0,0,377.72q0-.5,0-1c2.49-.1,5-.29,7.48-.29q212.72,0,425.43.1c4.65,0,7-1.54,9.25-5.46Q547,188,652.05,5c.88-1.53,1.86-3,3.11-5,1.44,2.36,2.57,4.14,3.63,6q62.76,108.79,125.52,217.58c.83,1.43,1.79,2.78,2.69,4.17Z"/></g></g></svg>