<?xml version="1.0" standalone="no"?>
<!DOCTYPE svg PUBLIC "-//W3C//DTD SVG 20010904//EN"
 "http://www.w3.org/TR/2001/REC-SVG-20010904/DTD/svg10.dtd">
<svg version="1.0" xmlns="http://www.w3.org/2000/svg"
 width="620.000000pt" height="620.000000pt" viewBox="0 0 620.000000 620.000000"
 preserveAspectRatio="xMidYMid meet">
<metadata>
Created by potrace 1.11, written by Peter Selinger 2001-2013
</metadata>
<g transform="translate(0.000000,620.000000) scale(0.100000,-0.100000)"
fill="#000000" stroke="none">
<path d="M3049 6184 c-23 -15 -133 -194 -293 -478 -15 -28 -79 -139 -141 -246
-61 -107 -174 -303 -250 -435 -75 -132 -148 -256 -160 -276 l-24 -37 -849 0
c-813 0 -851 -1 -875 -18 -53 -39 -60 -96 -21 -164 14 -25 36 -63 49 -85 12
-22 46 -80 75 -130 29 -49 62 -106 72 -125 11 -19 46 -80 78 -135 32 -55 67
-116 78 -136 11 -19 53 -93 94 -165 42 -71 119 -205 173 -299 87 -153 129
-225 186 -321 l19 -31 -86 -149 c-48 -82 -95 -165 -106 -184 -11 -19 -159
-276 -328 -570 -169 -294 -312 -545 -319 -557 -20 -38 -13 -80 18 -115 l29
-33 859 -3 859 -2 94 -163 c336 -583 652 -1131 678 -1177 48 -86 72 -119 93
-131 65 -34 121 -10 166 73 16 29 107 188 202 353 336 582 468 810 539 937 11
18 29 50 42 71 l22 37 844 0 c926 0 887 -2 918 59 26 50 18 74 -99 273 -5 9
-20 34 -31 55 -22 39 -406 705 -567 983 -49 85 -100 175 -113 199 l-24 44 61
106 c34 58 70 122 81 141 64 111 333 578 349 604 10 17 22 38 26 46 4 8 28 51
53 95 250 426 273 470 273 514 0 37 -5 49 -31 73 -18 15 -44 28 -60 29 -15 0
-399 1 -853 1 -772 0 -826 2 -836 18 -6 9 -131 226 -278 481 -268 467 -419
729 -502 871 -25 42 -53 84 -63 93 -27 25 -90 29 -121 9z m276 -689 c121 -209
225 -391 232 -405 8 -14 23 -41 35 -60 33 -57 244 -422 265 -460 11 -19 97
-168 190 -330 343 -595 393 -681 393 -686 0 -16 -134 -234 -140 -227 -6 6
-458 790 -533 923 -10 19 -71 125 -135 235 -63 109 -125 217 -137 240 -13 22
-68 117 -122 211 -55 94 -102 177 -106 185 -3 8 -26 46 -49 84 -36 58 -50 72
-82 83 -34 11 -43 10 -75 -5 -31 -16 -53 -47 -163 -238 -69 -121 -142 -246
-162 -277 l-35 -57 -134 1 -135 1 20 36 c18 32 313 543 456 791 30 52 64 111
75 130 50 90 121 209 122 207 1 -1 100 -173 220 -382z m-178 -592 c21 -38 42
-76 48 -85 35 -59 53 -98 47 -101 -4 -3 -69 -5 -145 -5 -160 -1 -155 -7 -87
103 20 33 49 81 64 108 15 26 29 47 31 47 2 0 20 -30 42 -67z m297 -518 c36
-63 66 -117 66 -119 0 -3 -508 -7 -1130 -8 l-1130 -3 -26 -26 c-15 -15 -28
-42 -31 -63 -5 -38 -4 -39 138 -286 15 -25 62 -106 104 -180 43 -74 78 -140
78 -146 0 -15 -126 -234 -135 -234 -5 0 -8 4 -8 9 0 4 -53 100 -118 212 -65
112 -121 211 -125 219 -4 8 -16 29 -26 45 -30 48 -311 537 -311 541 0 2 -19
34 -41 71 -23 38 -43 71 -46 75 -2 4 599 7 1336 7 l1339 0 66 -114z m2056 108
c0 -9 -72 -137 -86 -154 -8 -8 -14 -18 -14 -22 0 -3 -28 -54 -63 -114 -35 -59
-66 -115 -70 -123 -4 -8 -16 -30 -27 -48 -11 -18 -252 -437 -536 -930 -284
-493 -523 -908 -533 -921 -16 -23 -21 -24 -145 -25 -70 -1 -130 2 -132 5 -2 3
121 222 272 485 152 264 286 497 299 519 12 22 47 83 77 135 31 52 81 140 113
195 31 55 65 114 75 130 224 389 281 491 285 514 6 34 -24 92 -56 108 -18 9
-111 13 -351 13 l-327 0 -65 116 c-36 64 -66 118 -66 120 0 2 304 4 675 3 371
0 675 -3 675 -6z m-3700 -449 c0 -1 -23 -42 -51 -91 -29 -48 -63 -109 -78
-135 -27 -51 -31 -51 -59 3 -10 19 -42 74 -70 122 -29 49 -52 92 -52 97 0 4
70 7 155 7 85 0 155 -2 155 -3z m520 -4 c0 -3 -6 -14 -14 -25 -7 -11 -24 -40
-38 -65 -14 -25 -93 -162 -175 -305 -83 -143 -160 -276 -170 -295 -11 -19 -36
-62 -55 -95 -20 -33 -47 -80 -60 -105 -14 -25 -49 -85 -78 -135 -29 -49 -62
-106 -72 -125 -133 -233 -416 -724 -435 -753 -33 -52 -39 -96 -19 -135 29 -56
33 -57 376 -59 173 -1 322 -2 331 -2 14 -1 117 -163 140 -220 6 -15 -59 -16
-671 -16 -600 0 -677 2 -670 15 4 8 135 236 290 505 156 270 294 511 309 536
21 37 302 526 375 652 10 17 95 165 188 327 93 162 175 298 180 301 13 8 268
7 268 -1z m1388 -114 c39 -67 79 -137 90 -156 11 -19 52 -91 92 -160 40 -69
81 -141 92 -160 11 -19 61 -106 110 -192 l90 -158 -257 -447 c-142 -247 -266
-459 -275 -473 l-18 -25 -531 1 c-292 0 -532 3 -534 5 -4 4 -156 269 -193 334
-12 22 -94 166 -183 319 -89 154 -161 283 -161 287 0 5 33 66 74 136 106 185
258 448 344 598 42 72 86 148 99 171 l23 40 534 1 534 0 70 -121z m1012 116
c0 -5 -47 -88 -86 -153 -19 -31 -34 -61 -34 -65 0 -5 -8 -19 -18 -32 -17 -22
-18 -22 -95 111 -42 74 -77 136 -77 139 0 3 70 5 155 5 85 -1 155 -3 155 -5z
m-2803 -1181 c16 -25 506 -878 539 -938 15 -26 42 -72 61 -101 18 -29 33 -54
33 -57 0 -3 18 -34 40 -70 22 -36 40 -67 40 -69 0 -3 193 -341 338 -591 26
-44 58 -90 71 -102 40 -38 121 -27 151 20 7 12 45 76 83 142 38 66 105 182
149 258 l80 137 134 0 c74 0 134 -2 134 -5 0 -17 -664 -1155 -671 -1148 -7 8
-196 331 -243 418 -13 22 -67 117 -121 210 -262 453 -425 739 -425 747 0 4 -4
8 -10 8 -5 0 -10 4 -10 9 0 6 -24 52 -54 103 -302 521 -467 812 -464 822 5 18
122 226 128 226 3 0 10 -8 17 -19z m3259 -580 c178 -310 324 -567 324 -570 0
-7 -2666 -8 -2673 -1 -11 12 -127 220 -127 227 0 4 501 8 1112 7 612 -1 1123
3 1136 7 48 18 77 70 66 117 -4 15 -79 152 -166 304 l-160 278 68 116 c63 108
69 116 82 98 8 -10 160 -273 338 -583z m-3448 4 c39 -66 68 -122 66 -124 -7
-8 -296 -6 -301 2 -2 4 23 56 57 115 93 160 91 157 101 141 4 -8 39 -68 77
-134z m2916 14 c42 -71 76 -133 76 -137 0 -4 -70 -7 -155 -7 -85 0 -155 2
-155 5 0 7 151 270 155 270 2 0 38 -59 79 -131z m-1394 -813 c0 -4 -139 -248
-144 -254 -4 -3 -146 242 -146 252 0 3 65 6 145 6 80 0 145 -2 145 -4z"/>
</g>
</svg>
